<svg width="452" height="135" viewBox="0 0 452 135" fill="none" xmlns="http://www.w3.org/2000/svg">
<path d="M53.7073 129.58C53.7073 129.84 53.5873 129.97 53.3473 129.97C52.6073 129.97 51.8773 129.95 51.1573 129.91C50.4373 129.87 49.7173 129.85 48.9973 129.85C48.6573 129.85 48.3173 129.86 47.9773 129.88C47.6373 129.88 47.2973 129.89 46.9573 129.91C46.6173 129.93 46.2773 129.96 45.9373 130C45.6173 130.02 45.2873 130.03 44.9473 130.03C44.7673 130.03 44.6473 129.98 44.5873 129.88C44.5473 129.76 44.5273 129.63 44.5273 129.49C44.5273 129.41 44.5473 129.33 44.5873 129.25C44.6273 129.15 44.6973 129.1 44.7973 129.1C44.8573 129.08 44.9473 129.07 45.0673 129.07C45.2073 129.07 45.3473 129.08 45.4873 129.1C45.6473 129.1 45.7973 129.1 45.9373 129.1C46.2173 129.1 46.5273 129.07 46.8673 129.01C47.2273 128.95 47.4273 128.73 47.4673 128.35C47.4873 128.29 47.4873 128.23 47.4673 128.17C47.4673 128.11 47.4673 128.05 47.4673 127.99V109.6H47.2873C46.5273 111.66 45.7373 113.71 44.9173 115.75C44.0973 117.77 43.2773 119.79 42.4573 121.81C42.1373 122.63 41.8073 123.45 41.4673 124.27C41.1273 125.09 40.7873 125.91 40.4473 126.73C40.3073 127.09 40.1673 127.46 40.0273 127.84C39.9073 128.22 39.7573 128.58 39.5773 128.92C39.4373 129.14 39.2173 129.25 38.9173 129.25C38.6373 129.25 38.4273 129.14 38.2873 128.92C38.1273 128.62 37.9773 128.3 37.8373 127.96C37.7173 127.62 37.5873 127.29 37.4473 126.97C37.1473 126.27 36.8573 125.58 36.5773 124.9C36.2973 124.22 36.0173 123.54 35.7373 122.86C34.8173 120.66 33.8973 118.47 32.9773 116.29C32.0773 114.09 31.1773 111.9 30.2773 109.72C30.2773 112.82 30.2773 115.93 30.2773 119.05C30.2973 122.15 30.3073 125.25 30.3073 128.35C30.3073 128.75 30.4773 128.98 30.8173 129.04C31.1773 129.1 31.5073 129.13 31.8073 129.13C32.0073 129.13 32.2073 129.12 32.4073 129.1C32.6073 129.08 32.8073 129.07 33.0073 129.07C33.1073 129.07 33.1573 129.13 33.1573 129.25C33.1573 129.35 33.1473 129.49 33.1273 129.67C33.1073 129.85 33.0273 129.94 32.8873 129.94C32.3473 129.94 31.7973 129.93 31.2373 129.91C30.6973 129.87 30.1573 129.85 29.6173 129.85C29.0973 129.85 28.5673 129.87 28.0273 129.91C27.5073 129.93 26.9873 129.94 26.4673 129.94C26.4473 129.9 26.4273 129.87 26.4073 129.85C26.4073 129.81 26.3973 129.78 26.3773 129.76V129.49C26.3773 129.29 26.4173 129.18 26.4973 129.16C26.5773 129.14 26.6873 129.13 26.8273 129.13C26.9873 129.13 27.1373 129.14 27.2773 129.16C27.4173 129.16 27.5573 129.16 27.6973 129.16C27.9973 129.16 28.3173 129.12 28.6573 129.04C28.9973 128.96 29.1773 128.73 29.1973 128.35C29.2373 128.03 29.2473 127.71 29.2273 127.39C29.2273 127.05 29.2273 126.72 29.2273 126.4C29.2273 125.76 29.2173 125.12 29.1973 124.48C29.1973 123.82 29.1973 123.17 29.1973 122.53C29.1973 120.39 29.2073 118.26 29.2273 116.14C29.2673 114.02 29.2873 111.9 29.2873 109.78C29.2873 109.4 29.1073 109.15 28.7473 109.03C28.3873 108.91 28.0573 108.85 27.7573 108.85C27.5773 108.85 27.3973 108.86 27.2173 108.88C27.0373 108.9 26.8573 108.91 26.6773 108.91C26.5573 108.91 26.4773 108.85 26.4373 108.73C26.3973 108.61 26.3773 108.51 26.3773 108.43C26.3773 108.15 26.4873 108.01 26.7073 108.01C27.2273 108.01 27.7573 108.03 28.2973 108.07C28.8373 108.09 29.3673 108.1 29.8873 108.1C30.9073 108.1 31.9273 108.07 32.9473 108.01L40.0573 125.11C41.1573 122.25 42.3073 119.42 43.5073 116.62C44.7073 113.8 45.8173 110.95 46.8373 108.07C47.3373 108.09 47.8273 108.11 48.3073 108.13C48.8073 108.13 49.3073 108.13 49.8073 108.13C50.4073 108.13 50.9973 108.11 51.5773 108.07C52.1773 108.01 52.7773 107.98 53.3773 107.98C53.4973 107.98 53.5673 108.04 53.5873 108.16C53.6073 108.28 53.6173 108.38 53.6173 108.46C53.6173 108.54 53.6073 108.64 53.5873 108.76C53.5673 108.88 53.4973 108.94 53.3773 108.94C53.1173 108.94 52.8673 108.93 52.6273 108.91C52.3873 108.89 52.1473 108.88 51.9073 108.88C51.6673 108.88 51.3673 108.94 51.0073 109.06C50.6673 109.16 50.4973 109.36 50.4973 109.66V128.11C50.4973 128.57 50.6273 128.86 50.8873 128.98C51.1673 129.08 51.5173 129.13 51.9373 129.13C52.1773 129.13 52.4173 129.12 52.6573 129.1C52.8973 129.08 53.1473 129.07 53.4073 129.07C53.5673 129.07 53.6573 129.13 53.6773 129.25C53.6973 129.37 53.7073 129.48 53.7073 129.58ZM96.1653 126.49C96.0853 125.59 96.0353 124.69 96.0153 123.79C96.0153 122.87 96.0053 121.95 95.9853 121.03H95.5653C94.9453 121.03 94.2553 121.13 93.4953 121.33C92.7553 121.51 92.0453 121.79 91.3653 122.17C90.6853 122.55 90.1253 123.03 89.6853 123.61C89.2653 124.17 89.0553 124.82 89.0553 125.56C89.0553 126.52 89.3253 127.25 89.8653 127.75C90.4053 128.23 91.1353 128.47 92.0553 128.47C92.4953 128.47 92.9753 128.37 93.4953 128.17C94.0153 127.95 94.5153 127.69 94.9953 127.39C95.4753 127.09 95.8653 126.79 96.1653 126.49ZM101.415 128.41C101.415 128.49 101.405 128.55 101.385 128.59C101.185 129.03 100.845 129.37 100.365 129.61C99.9053 129.83 99.4453 129.94 98.9853 129.94C98.1453 129.94 97.5353 129.7 97.1553 129.22C96.7953 128.72 96.5053 128.11 96.2853 127.39C95.5253 128.09 94.6853 128.68 93.7653 129.16C92.8453 129.62 91.8553 129.85 90.7953 129.85C90.0553 129.85 89.3553 129.71 88.6953 129.43C88.0553 129.13 87.5353 128.7 87.1353 128.14C86.7353 127.58 86.5353 126.9 86.5353 126.1C86.5353 125.26 86.7453 124.54 87.1653 123.94C87.6053 123.32 88.1553 122.8 88.8153 122.38C89.4953 121.94 90.2153 121.59 90.9753 121.33C91.7553 121.05 92.4853 120.84 93.1653 120.7C93.6253 120.6 94.0953 120.51 94.5753 120.43C95.0553 120.35 95.5253 120.27 95.9853 120.19C95.9853 119.63 95.9553 118.98 95.8953 118.24C95.8553 117.5 95.7053 116.89 95.4453 116.41C95.1853 115.95 94.8353 115.54 94.3953 115.18C93.9553 114.82 93.4653 114.64 92.9253 114.64C92.0053 114.64 91.2853 114.88 90.7653 115.36C90.2453 115.84 89.8753 116.52 89.6553 117.4C89.6353 117.5 89.6153 117.61 89.5953 117.73C89.5953 117.83 89.5853 117.93 89.5653 118.03C89.5453 118.15 89.4653 118.26 89.3253 118.36C89.2053 118.44 89.0753 118.48 88.9353 118.48C88.5553 118.48 88.2053 118.39 87.8853 118.21C87.5853 118.03 87.4353 117.73 87.4353 117.31C87.4353 117.07 87.4753 116.86 87.5553 116.68C87.8153 116.06 88.2353 115.55 88.8153 115.15C89.3953 114.73 90.0353 114.41 90.7353 114.19C91.4553 113.97 92.1253 113.86 92.7453 113.86C93.8253 113.86 94.8053 114.06 95.6853 114.46C96.5653 114.86 97.2653 115.45 97.7853 116.23C98.3253 116.99 98.5953 117.95 98.5953 119.11C98.5953 120.41 98.5853 121.72 98.5653 123.04C98.5653 124.36 98.6053 125.68 98.6853 127C98.7053 127.44 98.7953 127.83 98.9553 128.17C99.1153 128.49 99.4453 128.65 99.9453 128.65C100.205 128.65 100.475 128.59 100.755 128.47C101.055 128.33 101.245 128.26 101.325 128.26C101.385 128.26 101.415 128.31 101.415 128.41ZM145.214 130.96C145.214 130.16 144.984 129.59 144.524 129.25C144.084 128.89 143.544 128.66 142.904 128.56C142.264 128.44 141.644 128.35 141.044 128.29L137.684 127.96C137.244 128.44 136.914 128.92 136.694 129.4C136.494 129.86 136.394 130.42 136.394 131.08C136.394 132.04 136.624 132.73 137.084 133.15C137.564 133.59 138.164 133.87 138.884 133.99C139.604 134.11 140.334 134.17 141.074 134.17C141.794 134.17 142.464 134.07 143.084 133.87C143.724 133.67 144.234 133.33 144.614 132.85C145.014 132.39 145.214 131.76 145.214 130.96ZM143.744 118.96C143.744 118.34 143.674 117.68 143.534 116.98C143.394 116.28 143.114 115.68 142.694 115.18C142.294 114.68 141.704 114.43 140.924 114.43C140.044 114.43 139.364 114.66 138.884 115.12C138.404 115.56 138.074 116.13 137.894 116.83C137.734 117.51 137.654 118.22 137.654 118.96C137.654 119.74 137.724 120.48 137.864 121.18C138.024 121.86 138.334 122.42 138.794 122.86C139.274 123.3 139.984 123.52 140.924 123.52C141.504 123.52 141.974 123.37 142.334 123.07C142.714 122.77 143.004 122.39 143.204 121.93C143.404 121.45 143.544 120.95 143.624 120.43C143.704 119.91 143.744 119.42 143.744 118.96ZM149.084 114.04C149.084 114.46 148.994 114.75 148.814 114.91C148.654 115.05 148.434 115.13 148.154 115.15C147.894 115.15 147.614 115.15 147.314 115.15C146.874 115.15 146.424 115.15 145.964 115.15C145.524 115.13 145.074 115.11 144.614 115.09C145.254 115.59 145.724 116.19 146.024 116.89C146.344 117.59 146.504 118.34 146.504 119.14C146.504 120.12 146.224 120.99 145.664 121.75C145.124 122.49 144.424 123.07 143.564 123.49C142.704 123.91 141.814 124.12 140.894 124.12C140.574 124.12 140.264 124.11 139.964 124.09C139.664 124.05 139.354 124.02 139.034 124C138.774 124.24 138.474 124.5 138.134 124.78C137.814 125.06 137.654 125.4 137.654 125.8C137.654 126.12 137.804 126.36 138.104 126.52C138.424 126.66 138.774 126.76 139.154 126.82C139.534 126.88 139.834 126.92 140.054 126.94L143.864 127.21C144.544 127.27 145.204 127.42 145.844 127.66C146.504 127.88 147.054 128.23 147.494 128.71C147.934 129.17 148.154 129.8 148.154 130.6C148.154 131.44 147.904 132.14 147.404 132.7C146.924 133.26 146.294 133.71 145.514 134.05C144.754 134.39 143.964 134.63 143.144 134.77C142.324 134.91 141.584 134.98 140.924 134.98C140.404 134.98 139.754 134.95 138.974 134.89C138.194 134.85 137.424 134.73 136.664 134.53C135.904 134.33 135.264 134.01 134.744 133.57C134.244 133.15 133.994 132.57 133.994 131.83C133.994 131.29 134.124 130.78 134.384 130.3C134.644 129.84 134.964 129.41 135.344 129.01C135.744 128.61 136.134 128.26 136.514 127.96C136.294 127.86 135.994 127.71 135.614 127.51C135.254 127.29 135.074 127.04 135.074 126.76C135.074 126.42 135.254 126.04 135.614 125.62C135.994 125.2 136.404 124.8 136.844 124.42C137.284 124.02 137.624 123.71 137.864 123.49C136.844 123.01 136.084 122.4 135.584 121.66C135.104 120.9 134.864 119.96 134.864 118.84C134.864 117.8 135.154 116.91 135.734 116.17C136.334 115.41 137.084 114.83 137.984 114.43C138.904 114.01 139.834 113.8 140.774 113.8C141.114 113.8 141.454 113.83 141.794 113.89C142.134 113.93 142.464 114 142.784 114.1C142.944 114.14 143.114 114.2 143.294 114.28C143.494 114.34 143.674 114.38 143.834 114.4C143.974 114.42 144.104 114.43 144.224 114.43C144.364 114.43 144.504 114.43 144.644 114.43C145.364 114.43 146.054 114.38 146.714 114.28C147.374 114.16 147.964 113.82 148.484 113.26C148.604 113.14 148.704 113.08 148.784 113.08C148.944 113.08 149.034 113.22 149.054 113.5C149.074 113.76 149.084 113.94 149.084 114.04ZM191.436 126.49C191.356 125.59 191.306 124.69 191.286 123.79C191.286 122.87 191.276 121.95 191.256 121.03H190.836C190.216 121.03 189.526 121.13 188.766 121.33C188.026 121.51 187.316 121.79 186.636 122.17C185.956 122.55 185.396 123.03 184.956 123.61C184.536 124.17 184.326 124.82 184.326 125.56C184.326 126.52 184.596 127.25 185.136 127.75C185.676 128.23 186.406 128.47 187.326 128.47C187.766 128.47 188.246 128.37 188.766 128.17C189.286 127.95 189.786 127.69 190.266 127.39C190.746 127.09 191.136 126.79 191.436 126.49ZM196.686 128.41C196.686 128.49 196.676 128.55 196.656 128.59C196.456 129.03 196.116 129.37 195.636 129.61C195.176 129.83 194.716 129.94 194.256 129.94C193.416 129.94 192.806 129.7 192.426 129.22C192.066 128.72 191.776 128.11 191.556 127.39C190.796 128.09 189.956 128.68 189.036 129.16C188.116 129.62 187.126 129.85 186.066 129.85C185.326 129.85 184.626 129.71 183.966 129.43C183.326 129.13 182.806 128.7 182.406 128.14C182.006 127.58 181.806 126.9 181.806 126.1C181.806 125.26 182.016 124.54 182.436 123.94C182.876 123.32 183.426 122.8 184.086 122.38C184.766 121.94 185.486 121.59 186.246 121.33C187.026 121.05 187.756 120.84 188.436 120.7C188.896 120.6 189.366 120.51 189.846 120.43C190.326 120.35 190.796 120.27 191.256 120.19C191.256 119.63 191.226 118.98 191.166 118.24C191.126 117.5 190.976 116.89 190.716 116.41C190.456 115.95 190.106 115.54 189.666 115.18C189.226 114.82 188.736 114.64 188.196 114.64C187.276 114.64 186.556 114.88 186.036 115.36C185.516 115.84 185.146 116.52 184.926 117.4C184.906 117.5 184.886 117.61 184.866 117.73C184.866 117.83 184.856 117.93 184.836 118.03C184.816 118.15 184.736 118.26 184.596 118.36C184.476 118.44 184.346 118.48 184.206 118.48C183.826 118.48 183.476 118.39 183.156 118.21C182.856 118.03 182.706 117.73 182.706 117.31C182.706 117.07 182.746 116.86 182.826 116.68C183.086 116.06 183.506 115.55 184.086 115.15C184.666 114.73 185.306 114.41 186.006 114.19C186.726 113.97 187.396 113.86 188.016 113.86C189.096 113.86 190.076 114.06 190.956 114.46C191.836 114.86 192.536 115.45 193.056 116.23C193.596 116.99 193.866 117.95 193.866 119.11C193.866 120.41 193.856 121.72 193.836 123.04C193.836 124.36 193.876 125.68 193.956 127C193.976 127.44 194.066 127.83 194.226 128.17C194.386 128.49 194.716 128.65 195.216 128.65C195.476 128.65 195.746 128.59 196.026 128.47C196.326 128.33 196.516 128.26 196.596 128.26C196.656 128.26 196.686 128.31 196.686 128.41ZM242.315 125.11C242.315 125.25 242.295 125.4 242.255 125.56C242.235 125.72 242.205 125.88 242.165 126.04C242.145 126.22 242.125 126.4 242.105 126.58C242.105 126.76 242.085 126.94 242.045 127.12C242.005 127.46 241.975 127.91 241.955 128.47C241.935 129.03 241.885 129.45 241.805 129.73C241.745 129.89 241.655 129.97 241.535 129.97C240.295 129.97 239.055 129.97 237.815 129.97C236.575 129.95 235.335 129.94 234.095 129.94C233.215 129.94 232.335 129.95 231.455 129.97C230.575 129.99 229.695 130 228.815 130C228.735 130 228.645 129.97 228.545 129.91C228.465 129.85 228.425 129.77 228.425 129.67C228.425 129.57 228.475 129.45 228.575 129.31C228.995 128.73 229.415 128.16 229.835 127.6C230.275 127.02 230.695 126.44 231.095 125.86C232.175 124.3 233.265 122.75 234.365 121.21C235.485 119.65 236.535 118.05 237.515 116.41C237.595 116.25 237.665 116.09 237.725 115.93C237.805 115.77 237.845 115.61 237.845 115.45C237.845 115.21 237.775 115.05 237.635 114.97C237.495 114.89 237.325 114.83 237.125 114.79C236.865 114.75 236.605 114.73 236.345 114.73C236.085 114.71 235.825 114.7 235.565 114.7C235.005 114.7 234.425 114.72 233.825 114.76C233.245 114.78 232.685 114.86 232.145 115C231.805 115.08 231.485 115.27 231.185 115.57C230.905 115.87 230.695 116.18 230.555 116.5C230.415 116.8 230.325 117.11 230.285 117.43C230.245 117.75 230.175 118.01 230.075 118.21C230.035 118.33 229.925 118.39 229.745 118.39C229.705 118.39 229.635 118.38 229.535 118.36C229.455 118.34 229.415 118.29 229.415 118.21C229.415 117.55 229.435 116.89 229.475 116.23C229.515 115.57 229.535 114.91 229.535 114.25C229.535 113.99 229.675 113.86 229.955 113.86C230.355 113.86 230.765 113.88 231.185 113.92C231.605 113.96 232.025 113.98 232.445 113.98C234.025 113.98 235.595 113.97 237.155 113.95C238.735 113.91 240.315 113.89 241.895 113.89C242.095 113.89 242.195 114.01 242.195 114.25C242.195 114.33 242.175 114.41 242.135 114.49C242.095 114.57 242.055 114.65 242.015 114.73C241.935 114.87 241.845 115 241.745 115.12C241.645 115.24 241.545 115.37 241.445 115.51C240.645 116.59 239.835 117.67 239.015 118.75C238.195 119.83 237.405 120.93 236.645 122.05C236.525 122.23 236.305 122.55 235.985 123.01C235.665 123.45 235.295 123.96 234.875 124.54C234.475 125.1 234.085 125.67 233.705 126.25C233.325 126.81 233.005 127.31 232.745 127.75C232.505 128.19 232.385 128.49 232.385 128.65C232.385 128.89 232.495 129.04 232.715 129.1C232.935 129.16 233.135 129.19 233.315 129.19C233.635 129.19 233.945 129.19 234.245 129.19C234.565 129.19 234.875 129.19 235.175 129.19C235.755 129.19 236.375 129.18 237.035 129.16C237.715 129.14 238.365 129.05 238.985 128.89C239.605 128.71 240.115 128.38 240.515 127.9C240.695 127.68 240.855 127.43 240.995 127.15C241.135 126.85 241.245 126.57 241.325 126.31C241.385 126.09 241.435 125.87 241.475 125.65C241.535 125.43 241.605 125.22 241.685 125.02C241.725 124.88 241.845 124.81 242.045 124.81C242.225 124.81 242.315 124.91 242.315 125.11ZM283.219 129.55C283.219 129.65 283.189 129.75 283.129 129.85C283.069 129.93 282.989 129.97 282.889 129.97C282.329 129.97 281.769 129.96 281.209 129.94C280.669 129.9 280.109 129.88 279.529 129.88H278.719C278.119 129.88 277.519 129.9 276.919 129.94C276.339 129.96 275.759 129.97 275.179 129.97C275.099 129.97 275.039 129.92 274.999 129.82C274.979 129.72 274.969 129.64 274.969 129.58C274.969 129.48 274.979 129.41 274.999 129.37C275.019 129.31 275.079 129.27 275.179 129.25C275.279 129.21 275.389 129.2 275.509 129.22C275.649 129.22 275.779 129.22 275.899 129.22C276.039 129.22 276.169 129.23 276.289 129.25C276.409 129.25 276.539 129.25 276.679 129.25C276.959 129.25 277.209 129.19 277.429 129.07C277.669 128.93 277.789 128.7 277.789 128.38V116.38C277.789 116.04 277.729 115.78 277.609 115.6C277.489 115.4 277.239 115.3 276.859 115.3C276.579 115.3 276.289 115.32 275.989 115.36C275.709 115.38 275.429 115.41 275.149 115.45C274.989 115.45 274.909 115.36 274.909 115.18C274.909 114.98 274.989 114.85 275.149 114.79C275.389 114.71 275.639 114.66 275.899 114.64C276.179 114.6 276.439 114.56 276.679 114.52C277.239 114.42 277.799 114.31 278.359 114.19C278.919 114.07 279.469 113.94 280.009 113.8C280.069 113.78 280.149 113.77 280.249 113.77C280.469 113.77 280.579 113.89 280.579 114.13C280.579 116.49 280.569 118.86 280.549 121.24C280.549 123.62 280.549 126 280.549 128.38C280.549 128.7 280.689 128.93 280.969 129.07C281.269 129.19 281.549 129.25 281.809 129.25C282.009 129.25 282.209 129.24 282.409 129.22C282.629 129.2 282.839 129.19 283.039 129.19C283.119 129.19 283.169 129.24 283.189 129.34C283.209 129.44 283.219 129.51 283.219 129.55ZM280.789 108.79C280.789 109.29 280.609 109.72 280.249 110.08C279.889 110.42 279.459 110.59 278.959 110.59C278.459 110.59 278.029 110.42 277.669 110.08C277.309 109.72 277.129 109.29 277.129 108.79C277.129 108.29 277.309 107.87 277.669 107.53C278.029 107.17 278.459 106.99 278.959 106.99C279.459 106.99 279.889 107.17 280.249 107.53C280.609 107.87 280.789 108.29 280.789 108.79ZM333.731 129.55C333.731 129.81 333.581 129.94 333.281 129.94C332.841 129.94 332.391 129.93 331.931 129.91C331.471 129.87 331.011 129.85 330.551 129.85C329.871 129.85 329.171 129.87 328.451 129.91C327.751 129.93 327.051 129.94 326.351 129.94C326.271 129.94 326.221 129.88 326.201 129.76C326.181 129.62 326.171 129.51 326.171 129.43C326.171 129.27 326.271 129.19 326.471 129.19C326.671 129.19 326.831 129.19 326.951 129.19C327.051 129.19 327.151 129.2 327.251 129.22C327.371 129.22 327.481 129.22 327.581 129.22C328.161 129.22 328.481 128.93 328.541 128.35C328.601 127.17 328.621 125.98 328.601 124.78C328.601 123.58 328.601 122.39 328.601 121.21C328.601 120.99 328.601 120.77 328.601 120.55C328.601 120.31 328.601 120.08 328.601 119.86C328.581 119.4 328.551 118.84 328.511 118.18C328.471 117.5 328.381 116.95 328.241 116.53C327.921 115.49 327.221 114.97 326.141 114.97C325.161 114.97 324.261 115.22 323.441 115.72C322.621 116.22 321.911 116.85 321.311 117.61C321.291 119.07 321.281 120.52 321.281 121.96C321.281 123.4 321.281 124.84 321.281 126.28V128.35C321.281 128.65 321.411 128.87 321.671 129.01C321.931 129.15 322.191 129.22 322.451 129.22C322.611 129.22 322.761 129.21 322.901 129.19C323.061 129.15 323.211 129.13 323.351 129.13C323.431 129.13 323.481 129.18 323.501 129.28C323.521 129.38 323.531 129.46 323.531 129.52C323.531 129.6 323.501 129.69 323.441 129.79C323.401 129.89 323.321 129.94 323.201 129.94C322.761 129.94 322.321 129.93 321.881 129.91C321.461 129.87 321.031 129.85 320.591 129.85C319.911 129.85 319.231 129.87 318.551 129.91C317.871 129.93 317.181 129.94 316.481 129.94C316.381 129.94 316.321 129.88 316.301 129.76C316.301 129.62 316.301 129.51 316.301 129.43C316.301 129.27 316.391 129.19 316.571 129.19C316.751 129.19 316.891 129.19 316.991 129.19C317.091 129.19 317.191 129.2 317.291 129.22C317.391 129.22 317.491 129.22 317.591 129.22C318.171 129.22 318.491 128.93 318.551 128.35C318.571 128.07 318.581 127.79 318.581 127.51C318.581 127.23 318.581 126.95 318.581 126.67C318.581 124.95 318.581 123.23 318.581 121.51C318.581 119.77 318.571 118.04 318.551 116.32C318.551 116.04 318.491 115.76 318.371 115.48C318.251 115.2 318.021 115.06 317.681 115.06C317.421 115.06 317.171 115.1 316.931 115.18C316.691 115.26 316.441 115.3 316.181 115.3C316.041 115.3 315.971 115.2 315.971 115C315.971 114.96 315.971 114.92 315.971 114.88C315.991 114.82 316.011 114.78 316.031 114.76C316.051 114.74 316.081 114.73 316.121 114.73C316.161 114.71 316.191 114.69 316.211 114.67C316.571 114.57 316.941 114.5 317.321 114.46C317.721 114.42 318.101 114.36 318.461 114.28C318.801 114.22 319.131 114.14 319.451 114.04C319.771 113.92 320.091 113.86 320.411 113.86C320.551 113.86 320.661 113.93 320.741 114.07C320.841 114.25 320.921 114.51 320.981 114.85C321.041 115.17 321.081 115.5 321.101 115.84C321.141 116.18 321.161 116.46 321.161 116.68C321.601 116.24 322.121 115.81 322.721 115.39C323.341 114.95 323.981 114.59 324.641 114.31C325.321 114.01 325.981 113.86 326.621 113.86C328.461 113.86 329.701 114.27 330.341 115.09C331.001 115.89 331.331 117.16 331.331 118.9C331.331 120.46 331.321 122.02 331.301 123.58C331.301 125.14 331.301 126.7 331.301 128.26C331.301 128.64 331.411 128.9 331.631 129.04C331.871 129.16 332.151 129.22 332.471 129.22C332.631 129.22 332.791 129.21 332.951 129.19C333.111 129.15 333.261 129.13 333.401 129.13C333.521 129.13 333.601 129.18 333.641 129.28C333.701 129.36 333.731 129.45 333.731 129.55ZM377.616 119.47C377.596 118.65 377.526 117.87 377.406 117.13C377.286 116.37 376.996 115.75 376.536 115.27C376.076 114.77 375.326 114.52 374.286 114.52C373.346 114.52 372.576 114.78 371.976 115.3C371.396 115.8 370.946 116.44 370.626 117.22C370.306 117.98 370.066 118.76 369.906 119.56C370.406 119.58 370.896 119.6 371.376 119.62C371.856 119.62 372.336 119.62 372.816 119.62C373.616 119.62 374.416 119.61 375.216 119.59C376.016 119.55 376.816 119.51 377.616 119.47ZM381.066 126.34C381.066 126.44 381.046 126.5 381.006 126.52C380.946 126.72 380.796 126.96 380.556 127.24C380.336 127.52 380.086 127.79 379.806 128.05C379.526 128.29 379.296 128.47 379.116 128.59C378.456 129.05 377.706 129.42 376.866 129.7C376.046 129.98 375.226 130.12 374.406 130.12C373.726 130.12 372.966 130.01 372.126 129.79C371.306 129.57 370.606 129.27 370.026 128.89C368.906 128.15 368.086 127.18 367.566 125.98C367.046 124.78 366.786 123.53 366.786 122.23C366.786 120.75 367.076 119.38 367.656 118.12C368.236 116.86 369.166 115.84 370.446 115.06C371.026 114.72 371.676 114.44 372.396 114.22C373.116 113.98 373.806 113.86 374.466 113.86C375.646 113.86 376.686 114.1 377.586 114.58C378.486 115.06 379.186 115.74 379.686 116.62C380.206 117.48 380.466 118.51 380.466 119.71C380.466 120.05 380.386 120.27 380.226 120.37C380.086 120.47 379.866 120.52 379.566 120.52C379.166 120.52 378.766 120.51 378.366 120.49C377.966 120.47 377.566 120.45 377.166 120.43C376.606 120.39 376.046 120.37 375.486 120.37C374.946 120.37 374.396 120.37 373.836 120.37C373.156 120.37 372.476 120.37 371.796 120.37C371.116 120.37 370.436 120.39 369.756 120.43C369.736 120.75 369.716 121.06 369.696 121.36C369.676 121.66 369.666 121.97 369.666 122.29C369.666 123.03 369.756 123.8 369.936 124.6C370.116 125.38 370.406 126.11 370.806 126.79C371.206 127.45 371.716 127.99 372.336 128.41C372.956 128.81 373.706 129.01 374.586 129.01C375.486 129.01 376.346 128.87 377.166 128.59C377.986 128.31 378.736 127.86 379.416 127.24C379.596 127.06 379.756 126.87 379.896 126.67C380.056 126.45 380.226 126.26 380.406 126.1C380.506 126 380.616 125.95 380.736 125.95C380.836 125.95 380.916 125.99 380.976 126.07C381.036 126.15 381.066 126.24 381.066 126.34ZM425.344 125.71C425.344 126.61 425.144 127.35 424.744 127.93C424.344 128.49 423.824 128.92 423.184 129.22C422.544 129.52 421.844 129.73 421.084 129.85C420.324 129.97 419.584 130.03 418.864 130.03C418.204 130.03 417.544 129.96 416.884 129.82C416.244 129.68 415.594 129.58 414.934 129.52C414.794 128.98 414.654 128.44 414.514 127.9C414.394 127.36 414.254 126.83 414.094 126.31C414.074 126.25 414.024 126.11 413.944 125.89C413.884 125.67 413.854 125.55 413.854 125.53C413.854 125.37 413.904 125.26 414.004 125.2C414.104 125.12 414.224 125.08 414.364 125.08C414.504 125.08 414.604 125.13 414.664 125.23C414.784 125.37 414.884 125.56 414.964 125.8C415.064 126.04 415.154 126.25 415.234 126.43C415.394 126.75 415.534 127 415.654 127.18C415.774 127.34 415.964 127.55 416.224 127.81C417.004 128.63 417.974 129.04 419.134 129.04C419.774 129.04 420.354 128.97 420.874 128.83C421.414 128.69 421.844 128.43 422.164 128.05C422.484 127.65 422.644 127.08 422.644 126.34C422.644 125.7 422.444 125.17 422.044 124.75C421.644 124.31 421.124 123.92 420.484 123.58C419.864 123.24 419.204 122.91 418.504 122.59C417.804 122.27 417.134 121.92 416.494 121.54C415.874 121.14 415.364 120.66 414.964 120.1C414.564 119.54 414.364 118.86 414.364 118.06C414.364 117.08 414.614 116.28 415.114 115.66C415.634 115.04 416.294 114.58 417.094 114.28C417.894 113.96 418.724 113.8 419.584 113.8C420.144 113.8 420.644 113.87 421.084 114.01C421.544 114.15 422.024 114.31 422.524 114.49C422.684 114.55 422.844 114.59 423.004 114.61C423.164 114.63 423.324 114.64 423.484 114.64C423.584 114.64 423.674 114.64 423.754 114.64C423.834 114.64 423.914 114.63 423.994 114.61C424.054 114.97 424.104 115.34 424.144 115.72C424.204 116.08 424.254 116.45 424.294 116.83C424.314 116.97 424.334 117.14 424.354 117.34C424.394 117.52 424.414 117.69 424.414 117.85C424.414 117.99 424.384 118.14 424.324 118.3C424.264 118.44 424.144 118.51 423.964 118.51C423.824 118.51 423.704 118.5 423.604 118.48C423.524 118.44 423.454 118.35 423.394 118.21C423.294 118.01 423.204 117.8 423.124 117.58C423.064 117.34 422.994 117.12 422.914 116.92C422.654 116.22 422.204 115.66 421.564 115.24C420.924 114.8 420.234 114.58 419.494 114.58C418.554 114.58 417.844 114.86 417.364 115.42C416.884 115.96 416.644 116.69 416.644 117.61C416.644 117.93 416.724 118.24 416.884 118.54C417.064 118.84 417.264 119.1 417.484 119.32C417.904 119.72 418.394 120.03 418.954 120.25C419.534 120.47 420.084 120.69 420.604 120.91C421.284 121.21 421.984 121.57 422.704 121.99C423.444 122.41 424.064 122.92 424.564 123.52C425.084 124.12 425.344 124.85 425.344 125.71Z" fill="black"/>
<path d="M91.04 32.792L80.96 30.68C80.96 28.76 81.472 27.8 82.496 27.8L94.112 28.184L102.56 27.8C103.52 27.8 104 28.76 104 30.68L96.8 32.792L96.512 95H91.136L49.856 39.032L50.624 90.008L60.8 92.12C60.8 94.04 60.288 95 59.264 95L47.648 94.616L38.24 95C37.28 95 36.8 94.04 36.8 92.12L44.672 90.008V32.888L36.8 30.776C36.8 28.792 37.216 27.8 38.048 27.8C38.944 27.8 43.328 27.928 51.2 28.184L91.616 82.904L91.04 32.792ZM131.94 32.792L123.684 30.68C123.684 28.76 124.164 27.8 125.124 27.8C126.276 27.8 129.86 27.928 135.876 28.184L145.764 27.8C146.724 27.8 147.204 28.76 147.204 30.68L138.948 32.792L139.428 61.4L138.948 90.008L147.204 92.12C147.204 94.04 146.724 95 145.764 95C145.124 95 141.828 94.872 135.876 94.616L125.124 95C124.164 95 123.684 94.04 123.684 92.12L131.94 90.008L131.46 61.4L131.94 32.792ZM175.978 32.792L167.722 30.68C167.722 28.76 168.202 27.8 169.162 27.8C170.314 27.8 173.898 27.928 179.914 28.184L189.802 27.8C190.762 27.8 191.242 28.76 191.242 30.68L182.986 32.792L183.466 61.4L182.986 89.72H205.546L208.042 80.696C208.298 79.8 209.642 79.352 212.074 79.352L211.306 93.848C211.242 94.616 210.314 95 208.522 95L179.914 94.232L169.162 95C168.202 95 167.722 94.04 167.722 92.12L175.978 90.008L175.498 61.4L175.978 32.792ZM237.08 32.792L228.824 30.68C228.824 28.76 229.304 27.8 230.264 27.8C231.416 27.8 235 27.928 241.016 28.184L250.904 27.8C251.864 27.8 252.344 28.76 252.344 30.68L244.088 32.792L244.568 61.4L244.088 89.72H266.648L269.144 80.696C269.4 79.8 270.744 79.352 273.176 79.352L272.408 93.848C272.344 94.616 271.416 95 269.624 95L241.016 94.232L230.264 95C229.304 95 228.824 94.04 228.824 92.12L237.08 90.008L236.6 61.4L237.08 32.792ZM297.127 90.008L306.247 92.12C306.247 94.04 305.767 95 304.807 95C304.615 95 301.063 94.872 294.151 94.616L285.415 95C284.455 95 283.975 94.04 283.975 92.12L291.175 90.008L313.255 27.8H320.551L342.823 90.008L350.023 92.12C350.023 94.04 349.543 95 348.583 95C347.815 95 344.647 94.872 339.079 94.616L327.655 95C326.695 95 326.215 94.04 326.215 92.12L334.855 90.008L328.807 73.016L302.407 74.36L297.127 90.008ZM315.655 35.576L304.327 68.792H327.367L315.655 35.576ZM372.502 32.792L364.438 30.68C364.438 28.76 364.918 27.8 365.878 27.8C366.454 27.8 369.75 27.928 375.766 28.184C385.43 27.928 390.422 27.8 390.742 27.8C396.566 27.8 401.206 29.592 404.662 33.176C408.118 36.76 409.846 41.112 409.846 46.232C409.846 49.688 408.63 53.048 406.198 56.312C403.766 59.512 400.374 61.848 396.022 63.32C397.622 64.28 399.158 66.008 400.63 68.504L412.918 90.008L420.598 92.12C420.598 94.04 420.118 95 419.158 95H406.582L392.758 68.888C391.606 66.84 390.486 65.432 389.398 64.664L380.374 66.104L379.606 90.008L389.302 92.12C389.302 94.04 388.822 95 387.862 95C385.75 95 381.718 94.872 375.766 94.616L365.878 95C364.918 95 364.438 94.04 364.438 92.12L372.502 90.008V32.792ZM388.246 31.832L379.606 32.792L380.47 60.632L386.518 61.016C391.958 61.016 396.054 59.544 398.806 56.6C401.558 53.656 402.934 50.2 402.934 46.232C402.934 42.264 401.654 38.872 399.094 36.056C396.598 33.24 392.982 31.832 388.246 31.832Z" fill="black"/>
<path d="M63 36L85.637 66.75" stroke="black" stroke-width="4" stroke-linecap="round"/>
<path d="M56 56L78.637 86.75" stroke="black" stroke-width="4" stroke-linecap="round"/>
</svg>
